<svg width="280" height="280" viewBox="0 0 280 280" fill="none" xmlns="http://www.w3.org/2000/svg">
<circle opacity="0.08" cx="140" cy="140" r="140" fill="white"/>
<circle opacity="0.08" cx="140" cy="140" r="118" fill="white"/>
<circle opacity="0.12" cx="140" cy="140" r="96" fill="white"/>
<path d="M67.1364 61.263C67.0966 60.2565 68.3192 59.7313 69.0218 60.4531L73.505 65.0589C73.7224 65.2822 74.0244 65.4028 74.3359 65.3904L80.7583 65.1364C81.7648 65.0965 82.29 66.3191 81.5682 67.0218L76.9624 71.505C76.7391 71.7224 76.6186 72.0244 76.6309 72.3358L76.885 78.7583C76.9248 79.7648 75.7022 80.29 74.9996 79.5681L70.5164 74.9624C70.299 74.739 69.9969 74.6185 69.6855 74.6308L63.2631 74.8849C62.2565 74.9247 61.7314 73.7021 62.4532 72.9995L67.059 68.5163C67.2823 68.2989 67.4028 67.9969 67.3905 67.6855L67.1364 61.263Z" fill="#88E8AF"/>
<path d="M214.775 94.4138C215.448 93.4154 216.998 93.7732 217.165 94.9656L218.232 102.574C218.283 102.943 218.489 103.273 218.798 103.481L225.169 107.775C226.167 108.448 225.81 109.998 224.617 110.165L217.009 111.231C216.64 111.283 216.31 111.489 216.102 111.798L211.808 118.169C211.135 119.167 209.585 118.81 209.418 117.617L208.351 110.009C208.3 109.64 208.094 109.31 207.785 109.102L201.414 104.808C200.415 104.135 200.773 102.585 201.966 102.418L209.574 101.351C209.943 101.3 210.273 101.094 210.481 100.785L214.775 94.4138Z" fill="#88E8AF"/>
<path d="M54.6161 167.814C55.1274 167.135 56.2066 167.445 56.2804 168.291L56.7512 173.694C56.7741 173.956 56.9071 174.196 57.1172 174.354L61.4494 177.617C62.1284 178.128 61.8189 179.207 60.9722 179.281L55.5695 179.752C55.3075 179.775 55.0675 179.908 54.9093 180.118L51.647 184.45C51.1357 185.129 50.0565 184.819 49.9827 183.973L49.5119 178.57C49.489 178.308 49.356 178.068 49.1459 177.91L44.8137 174.648C44.1348 174.136 44.4442 173.057 45.2909 172.983L50.6936 172.512C50.9556 172.49 51.1956 172.357 51.3538 172.146L54.6161 167.814Z" fill="#88E8AF"/>
<path d="M207.367 186.717C207.462 185.944 208.46 185.695 208.907 186.333L211.757 190.406C211.895 190.604 212.111 190.733 212.35 190.763L217.284 191.367C218.058 191.462 218.307 192.46 217.668 192.907L213.595 195.757C213.398 195.895 213.268 196.111 213.239 196.35L212.635 201.284C212.54 202.058 211.541 202.307 211.095 201.668L208.245 197.595C208.106 197.398 207.891 197.268 207.652 197.239L202.717 196.635C201.944 196.54 201.695 195.541 202.333 195.095L206.406 192.245C206.604 192.106 206.733 191.891 206.763 191.652L207.367 186.717Z" fill="#88E8AF"/>
<path d="M18.3578 126.976C18.4267 126.414 19.1529 126.233 19.4777 126.697L21.5505 129.659C21.651 129.803 21.8078 129.897 21.9818 129.918L25.5705 130.358C26.1329 130.427 26.314 131.153 25.8497 131.478L22.8874 133.551C22.7438 133.651 22.6495 133.808 22.6282 133.982L22.1888 137.57C22.12 138.133 21.3937 138.314 21.0689 137.85L18.9961 134.887C18.8956 134.744 18.7388 134.65 18.5648 134.628L14.9761 134.189C14.4137 134.12 14.2327 133.394 14.6969 133.069L17.6592 130.996C17.8029 130.896 17.8971 130.739 17.9184 130.565L18.3578 126.976Z" fill="#88E8AF"/>
<path d="M256.465 154.647C256.522 154.178 257.127 154.027 257.398 154.414L259.125 156.883C259.209 157.002 259.34 157.081 259.485 157.099L262.475 157.465C262.944 157.522 263.095 158.127 262.708 158.398L260.24 160.125C260.12 160.209 260.041 160.34 260.024 160.485L259.657 163.475C259.6 163.944 258.995 164.095 258.724 163.708L256.997 161.239C256.913 161.12 256.782 161.041 256.637 161.024L253.647 160.657C253.178 160.6 253.027 159.995 253.414 159.724L255.883 157.997C256.002 157.913 256.081 157.782 256.099 157.637L256.465 154.647Z" fill="#88E8AF"/>
<path d="M170.069 30.6969C170.394 30.2327 171.12 30.4137 171.189 30.9761L171.628 34.5648C171.65 34.7388 171.744 34.8956 171.888 34.9961L174.85 37.0689C175.314 37.3937 175.133 38.12 174.571 38.1888L170.982 38.6282C170.808 38.6495 170.651 38.7438 170.551 38.8874L168.478 41.8497C168.153 42.314 167.427 42.1329 167.358 41.5705L166.919 37.9818C166.897 37.8078 166.803 37.651 166.659 37.5505L163.697 35.4777C163.233 35.1529 163.414 34.4267 163.976 34.3578L167.565 33.9184C167.739 33.8971 167.896 33.8029 167.996 33.6592L170.069 30.6969Z" fill="#88E8AF"/>
</svg>
