<svg xmlns="http://www.w3.org/2000/svg" width="82" height="40" fill="none" viewBox="0 0 82 40">
    <g clip-path="url(#clip0)">
        <path fill="#48DB84" fill-rule="evenodd" d="M76.79.007c2.293-.031 4.217 1.857 4.229 4.14.007 2.311-1.88 4.223-4.207 4.26-2.263.037-4.175-1.84-4.257-4.096C72.466 1.84 74.65-.133 76.79.007zm-6.764 17.932c-.203 5.714-4.382 9.812-9.419 10.516-2.764.397-5.576-.277-7.86-1.885-2.284-1.607-3.868-4.027-4.427-6.763-1.25-6.048 2.896-12.044 9.007-13 1.767-.29 3.579-.13 5.268.464.337.118.47.053.601-.274.4-1 .814-1.996 1.227-2.992l.001-.002.638-1.54c.388-.943 1.062-1.548 2.07-1.764 1.605-.349 3.127.92 3.097 2.56-.011.62-.008 1.24-.004 1.86.002.31.004.62.004.93l-.203 11.89zm-24.03-.028c.09 5.725-4.535 10.963-10.934 10.974-6.067.014-10.948-4.9-10.963-10.92-.015-6.019 4.906-10.971 10.908-10.98 1.44-.008 2.867.27 4.2.815 1.332.545 2.544 1.349 3.565 2.364 1.022 1.016 1.832 2.223 2.385 3.552.554 1.33.839 2.755.84 4.195zm26.566-.752v.001l.001 1.763.003 5.345v.096c-.017 1.079.361 2.013 1.079 2.802 1.193 1.314 3.018 1.757 4.62 1.144.802-.302 1.493-.84 1.981-1.546.488-.704.75-1.54.75-2.398.008-1.081.005-2.162.003-3.243l-.002-1.62-.001-1.974c-.002-1.317-.003-2.633 0-3.95.003-1.185-.413-2.21-1.265-3.017-1.345-1.273-2.95-1.583-4.63-.85-1.656.72-2.531 2.07-2.538 3.915-.004 1.177-.003 2.355-.001 3.532zM9.175 29.745c-.138.737-.275 1.462-.388 2.191-.153.971-.469 1.828-1.331 2.4-1.54 1.02-3.531.197-3.98-1.592l-.35-1.397C2.253 27.87 1.381 24.39.408 20.938-1.354 14.66 2.754 8.152 9.2 7.147c5.75-.897 11.046 2.636 12.43 8.295 1.503 6.144-2.784 12.45-9.046 13.307-.524.079-1.051.125-1.58.14-.365.01-.73-.021-1.116-.054-.173-.014-.35-.029-.534-.04-.059.32-.118.636-.178.951zm-4.678 8.439c-.005-.479.18-.94.514-1.284.335-.343.79-.54 1.27-.549.978-.017 1.84.803 1.861 1.767.005.245-.04.488-.13.716-.09.228-.225.435-.396.61s-.376.315-.601.41c-.226.096-.468.145-.713.146-.48-.004-.938-.196-1.276-.536-.338-.34-.528-.8-.53-1.28z" clip-rule="evenodd"/>
    </g>
    <defs>
        <clipPath id="clip0">
            <path fill="#fff" d="M0 0H81.019V40H0z"/>
        </clipPath>
    </defs>
</svg>
