<svg width="115" height="113" viewBox="0 0 115 113" fill="none" xmlns="http://www.w3.org/2000/svg">
<path d="M13.0324 7.5153C12.986 6.34102 14.4124 5.7283 15.2321 6.57043L20.4625 11.9438C20.7161 12.2044 21.0685 12.345 21.4318 12.3306L28.9246 12.0342C30.0989 11.9877 30.7116 13.4141 29.8695 14.2338L24.4961 19.4642C24.2355 19.7179 24.0949 20.0702 24.1093 20.4336L24.4057 27.9264C24.4522 29.1007 23.0258 29.7134 22.2061 28.8713L16.9757 23.4979C16.7221 23.2373 16.3697 23.0967 16.0064 23.1111L8.51353 23.4075C7.33925 23.454 6.72654 22.0276 7.56866 21.2079L12.9421 15.9775C13.2026 15.7238 13.3432 15.3715 13.3289 15.0082L13.0324 7.5153Z" fill="#88E8AF"/>
<path d="M57.2079 11C31.4759 11 10.5413 31.9347 10.5413 57.6667C10.5413 83.3987 31.4759 104.333 57.2079 104.333C82.9399 104.333 103.875 83.3987 103.875 57.6667C103.875 31.9347 82.9399 11 57.2079 11ZM47.8793 78.2607L30.5519 60.9707L37.1413 54.3627L47.8699 65.0727L72.5753 40.3673L79.1739 46.966L47.8793 78.2607Z" fill="white"/>
<path d="M96.3447 11.1048C97.1298 9.94001 98.9378 10.3574 99.1329 11.7486L100.377 20.6251C100.438 21.0555 100.678 21.4401 101.038 21.683L108.471 26.6927C109.636 27.4779 109.218 29.2859 107.827 29.4809L98.9508 30.7254C98.5204 30.7858 98.1358 31.0261 97.8929 31.3865L92.8832 38.8191C92.098 39.9839 90.29 39.5665 90.0949 38.1754L88.8505 29.2989C88.7901 28.8684 88.5498 28.4839 88.1894 28.241L80.7568 23.2312C79.592 22.4461 80.0094 20.638 81.4005 20.443L90.277 19.1985C90.7074 19.1382 91.092 18.8979 91.3349 18.5374L96.3447 11.1048Z" fill="#88E8AF"/>
<path d="M16.4811 88.8216C17.0775 88.0295 18.3366 88.3906 18.4227 89.3784L18.9721 95.6815C18.9987 95.9872 19.1539 96.2671 19.399 96.4517L24.4533 100.258C25.2454 100.854 24.8843 102.113 23.8965 102.199L17.5933 102.749C17.2877 102.775 17.0077 102.931 16.8232 103.176L13.0171 108.23C12.4207 109.022 11.1616 108.661 11.0755 107.673L10.5261 101.37C10.4995 101.064 10.3443 100.784 10.0992 100.6L5.04495 96.7938C4.25284 96.1973 4.61388 94.9382 5.60172 94.8521L11.9049 94.3028C12.2105 94.2762 12.4905 94.121 12.675 93.8759L16.4811 88.8216Z" fill="#88E8AF"/>
<path d="M100.218 81.5016C100.329 80.5994 101.494 80.3089 102.015 81.0537L105.34 85.8057C105.501 86.0361 105.752 86.1872 106.032 86.2214L111.788 86.9263C112.691 87.0368 112.981 88.2018 112.236 88.7229L107.484 92.0479C107.254 92.2092 107.103 92.4607 107.069 92.7398L106.364 98.4966C106.253 99.3989 105.088 99.6893 104.567 98.9446L101.242 94.1926C101.081 93.9621 100.829 93.811 100.55 93.7768L94.7934 93.0719C93.8912 92.9615 93.6007 91.7964 94.3454 91.2753L99.0974 87.9503C99.3279 87.7891 99.479 87.5376 99.5132 87.2584L100.218 81.5016Z" fill="#88E8AF"/>
</svg>
